<mxfile host="app.diagrams.net" agent="Mozilla/5.0 (Macintosh; Intel Mac OS X 10_15_7) AppleWebKit/537.36 (KHTML, like Gecko) Chrome/140.0.0.0 Safari/537.36" version="28.0.7">
  <diagram name="STS Diagram" id="AMWLJg8652TW3K371ZNK">
    <mxGraphModel dx="858" dy="487" grid="1" gridSize="10" guides="1" tooltips="1" connect="1" arrows="1" fold="1" page="1" pageScale="1" pageWidth="850" pageHeight="1100" math="0" shadow="0">
      <root>
        <mxCell id="0" />
        <mxCell id="1" parent="0" />
        <mxCell id="kIWTv3nHnlGpTvX9Gzf3-127" value="售电终端&lt;br&gt;(POS)+安全模块(CM)" style="rounded=1;whiteSpace=wrap;html=1;" parent="1" vertex="1">
          <mxGeometry x="220" y="650" width="160" height="60" as="geometry" />
        </mxCell>
        <mxCell id="kIWTv3nHnlGpTvX9Gzf3-128" value="预付费表计" style="ellipse;whiteSpace=wrap;html=1;dashed=1;" parent="1" vertex="1">
          <mxGeometry x="240" y="860" width="140" height="60" as="geometry" />
        </mxCell>
        <mxCell id="kIWTv3nHnlGpTvX9Gzf3-129" value="密钥管理中心&lt;br&gt;(KMC)" style="rounded=1;whiteSpace=wrap;html=1;" parent="1" vertex="1">
          <mxGeometry x="840" y="590" width="180" height="660" as="geometry" />
        </mxCell>
        <mxCell id="kIWTv3nHnlGpTvX9Gzf3-130" value="公共服务&lt;br&gt;运营商" style="ellipse;whiteSpace=wrap;html=1;" parent="1" vertex="1">
          <mxGeometry x="480" y="910" width="140" height="60" as="geometry" />
        </mxCell>
        <mxCell id="kIWTv3nHnlGpTvX9Gzf3-131" value="供应组" style="whiteSpace=wrap;html=1;" parent="1" vertex="1">
          <mxGeometry x="460" y="830" width="100" height="40" as="geometry" />
        </mxCell>
        <mxCell id="kIWTv3nHnlGpTvX9Gzf3-132" value="安全模块&lt;br&gt;(CM)&lt;br&gt;制造商" style="rounded=1;whiteSpace=wrap;html=1;" parent="1" vertex="1">
          <mxGeometry x="650" y="910" width="160" height="60" as="geometry" />
        </mxCell>
        <mxCell id="kIWTv3nHnlGpTvX9Gzf3-133" value="表计制造商" style="whiteSpace=wrap;html=1;" parent="1" vertex="1">
          <mxGeometry x="250" y="1170" width="160" height="60" as="geometry" />
        </mxCell>
        <mxCell id="kIWTv3nHnlGpTvX9Gzf3-134" value="安全模块安装" style="endArrow=classic;html=1;entryX=0;entryY=0.15;exitX=1;exitY=0.15;" parent="1" source="kIWTv3nHnlGpTvX9Gzf3-127" target="kIWTv3nHnlGpTvX9Gzf3-129" edge="1">
          <mxGeometry width="50" height="50" relative="1" as="geometry">
            <mxPoint x="380" y="660" as="sourcePoint" />
            <mxPoint x="840" y="660" as="targetPoint" />
          </mxGeometry>
        </mxCell>
        <mxCell id="kIWTv3nHnlGpTvX9Gzf3-135" value="售电密钥装载请求" style="endArrow=classic;html=1;entryX=0;entryY=0.3;exitX=1;exitY=0.3;" parent="1" source="kIWTv3nHnlGpTvX9Gzf3-127" target="kIWTv3nHnlGpTvX9Gzf3-129" edge="1">
          <mxGeometry width="50" height="50" relative="1" as="geometry">
            <mxPoint x="380" y="670" as="sourcePoint" />
            <mxPoint x="840" y="670" as="targetPoint" />
          </mxGeometry>
        </mxCell>
        <mxCell id="kIWTv3nHnlGpTvX9Gzf3-136" value="售电密钥装载" style="endArrow=classic;html=1;entryX=1;entryY=0.45;exitX=0;exitY=0.45;" parent="1" source="kIWTv3nHnlGpTvX9Gzf3-129" target="kIWTv3nHnlGpTvX9Gzf3-127" edge="1">
          <mxGeometry width="50" height="50" relative="1" as="geometry">
            <mxPoint x="840" y="680" as="sourcePoint" />
            <mxPoint x="380" y="680" as="targetPoint" />
          </mxGeometry>
        </mxCell>
        <mxCell id="kIWTv3nHnlGpTvX9Gzf3-137" value="解码密钥&lt;br&gt;更改" style="endArrow=classic;html=1;entryX=0.5;entryY=0;exitX=0.5;exitY=1;" parent="1" source="kIWTv3nHnlGpTvX9Gzf3-127" target="kIWTv3nHnlGpTvX9Gzf3-128" edge="1">
          <mxGeometry width="50" height="50" relative="1" as="geometry">
            <mxPoint x="300" y="710" as="sourcePoint" />
            <mxPoint x="310" y="860" as="targetPoint" />
          </mxGeometry>
        </mxCell>
        <mxCell id="kIWTv3nHnlGpTvX9Gzf3-138" value="供应组" style="endArrow=classic;html=1;entryX=0.5;entryY=1;exitX=1;exitY=0.1;" parent="1" source="kIWTv3nHnlGpTvX9Gzf3-128" target="kIWTv3nHnlGpTvX9Gzf3-131" edge="1">
          <mxGeometry width="50" height="50" relative="1" as="geometry">
            <mxPoint x="380" y="870" as="sourcePoint" />
            <mxPoint x="510" y="870" as="targetPoint" />
            <Array as="points">
              <mxPoint x="420" y="870" />
              <mxPoint x="420" y="830" />
            </Array>
          </mxGeometry>
        </mxCell>
        <mxCell id="kIWTv3nHnlGpTvX9Gzf3-139" value="供应组划定" style="endArrow=classic;html=1;entryX=0;entryY=0.5;exitX=1;exitY=0.5;" parent="1" source="kIWTv3nHnlGpTvX9Gzf3-131" target="kIWTv3nHnlGpTvX9Gzf3-130" edge="1">
          <mxGeometry width="50" height="50" relative="1" as="geometry">
            <mxPoint x="560" y="850" as="sourcePoint" />
            <mxPoint x="480" y="940" as="targetPoint" />
            <Array as="points">
              <mxPoint x="590" y="850" />
              <mxPoint x="590" y="940" />
            </Array>
          </mxGeometry>
        </mxCell>
        <mxCell id="kIWTv3nHnlGpTvX9Gzf3-140" value="CM订单" style="endArrow=classic;html=1;entryX=0;entryY=0.5;exitX=1;exitY=0.5;" parent="1" source="kIWTv3nHnlGpTvX9Gzf3-130" target="kIWTv3nHnlGpTvX9Gzf3-132" edge="1">
          <mxGeometry width="50" height="50" relative="1" as="geometry">
            <mxPoint x="620" y="940" as="sourcePoint" />
            <mxPoint x="650" y="940" as="targetPoint" />
          </mxGeometry>
        </mxCell>
        <mxCell id="kIWTv3nHnlGpTvX9Gzf3-141" value="CM初始化&lt;br&gt;请求" style="endArrow=classic;html=1;entryX=0;entryY=0.5;exitX=1;exitY=0.5;" parent="1" source="kIWTv3nHnlGpTvX9Gzf3-132" target="kIWTv3nHnlGpTvX9Gzf3-129" edge="1">
          <mxGeometry width="50" height="50" relative="1" as="geometry">
            <mxPoint x="810" y="940" as="sourcePoint" />
            <mxPoint x="840" y="940" as="targetPoint" />
          </mxGeometry>
        </mxCell>
        <mxCell id="kIWTv3nHnlGpTvX9Gzf3-142" value="售电密钥装载授权" style="endArrow=classic;html=1;entryX=0;entryY=0.6;exitX=1;exitY=0.5;" parent="1" source="kIWTv3nHnlGpTvX9Gzf3-130" target="kIWTv3nHnlGpTvX9Gzf3-129" edge="1">
          <mxGeometry width="50" height="50" relative="1" as="geometry">
            <mxPoint x="620" y="940" as="sourcePoint" />
            <mxPoint x="840" y="990" as="targetPoint" />
          </mxGeometry>
        </mxCell>
        <mxCell id="kIWTv3nHnlGpTvX9Gzf3-143" value="表计订单" style="endArrow=classic;html=1;entryX=0;entryY=0.5;exitX=0.2;exitY=1;" parent="1" source="kIWTv3nHnlGpTvX9Gzf3-130" target="kIWTv3nHnlGpTvX9Gzf3-133" edge="1">
          <mxGeometry width="50" height="50" relative="1" as="geometry">
            <mxPoint x="480" y="970" as="sourcePoint" />
            <mxPoint x="330" y="1170" as="targetPoint" />
            <Array as="points">
              <mxPoint x="480" y="1090" />
              <mxPoint x="330" y="1090" />
            </Array>
          </mxGeometry>
        </mxCell>
        <mxCell id="kIWTv3nHnlGpTvX9Gzf3-144" value="售电密钥装载请求" style="endArrow=classic;html=1;entryX=0;entryY=0.8;exitX=1;exitY=0.5;" parent="1" source="kIWTv3nHnlGpTvX9Gzf3-133" target="kIWTv3nHnlGpTvX9Gzf3-129" edge="1">
          <mxGeometry width="50" height="50" relative="1" as="geometry">
            <mxPoint x="410" y="1200" as="sourcePoint" />
            <mxPoint x="840" y="1120" as="targetPoint" />
          </mxGeometry>
        </mxCell>
        <mxCell id="kIWTv3nHnlGpTvX9Gzf3-145" value="售电密钥装载" style="endArrow=classic;html=1;entryX=1;entryY=0.9;exitX=0;exitY=0.7;" parent="1" source="kIWTv3nHnlGpTvX9Gzf3-129" target="kIWTv3nHnlGpTvX9Gzf3-133" edge="1">
          <mxGeometry width="50" height="50" relative="1" as="geometry">
            <mxPoint x="840" y="1130" as="sourcePoint" />
            <mxPoint x="410" y="1210" as="targetPoint" />
          </mxGeometry>
        </mxCell>
        <mxCell id="kIWTv3nHnlGpTvX9Gzf3-146" value="表计安装" style="endArrow=classic;html=1;entryX=0.5;entryY=1;exitX=0.5;exitY=0;" parent="1" source="kIWTv3nHnlGpTvX9Gzf3-133" target="kIWTv3nHnlGpTvX9Gzf3-128" edge="1">
          <mxGeometry width="50" height="50" relative="1" as="geometry">
            <mxPoint x="330" y="1170" as="sourcePoint" />
            <mxPoint x="310" y="920" as="targetPoint" />
          </mxGeometry>
        </mxCell>
      </root>
    </mxGraphModel>
  </diagram>
</mxfile>
